<?xml version="1.0" encoding="UTF-8" standalone="no"?>
<!DOCTYPE svg PUBLIC "-//W3C//DTD SVG 1.1//EN" "http://www.w3.org/Graphics/SVG/1.1/DTD/svg11.dtd">
<svg width="100%" height="100%" viewBox="0 0 123 68" version="1.1" xmlns="http://www.w3.org/2000/svg" xmlns:xlink="http://www.w3.org/1999/xlink" xml:space="preserve" xmlns:serif="http://www.serif.com/" style="fill-rule:evenodd;clip-rule:evenodd;">
    <g id="g2198" transform="matrix(-0.310931,0,0,0.363039,200.291,-87.9648)">
        <path id="path14684" d="M264.661,311.011C289.6,352.916 311.995,387.695 336.934,429.6C388.17,405 409.885,396.687 454.505,381.248C474.015,386.847 494.543,376.667 502.856,369.033C539.671,363.943 582.594,357.836 623.99,353.764C622.972,347.148 625.007,344.603 623.99,337.986C581.067,306.6 537.635,273.687 494.713,242.301C416.332,264.526 343.042,288.786 264.661,311.011Z" style="fill:rgb(92,77,77);stroke:rgb(254,254,254);stroke-width:5px;"/>
        <path id="path14685" d="M274.331,312.538C296.726,348.165 319.12,383.793 341.515,419.42C381.214,398.553 428.337,367.47 465.203,375.773C463.414,363.501 469.182,356.628 476.39,348.674C416.502,338.326 386.643,372.765 344.06,389.392C343.211,398.044 342.363,406.696 341.515,415.349C342.702,407.036 342.872,398.723 344.059,390.409C324.719,360.381 301.816,322.717 282.475,292.688C276.198,295.742 275.519,305.413 274.331,312.538Z" style="fill:white;stroke:rgb(92,77,77);stroke-width:3.75px;"/>
        <path id="path14686" d="M470.791,360.381C487.248,328.995 500.594,326.777 532.885,322.208C558.183,318.629 575.921,319.473 601.708,318.286C599.503,325.751 603.292,335.611 606.685,345.621C582.424,346.639 563.253,345.112 536.448,348.674C518.634,347.148 502.856,358.345 491.15,370.051C492.168,348.335 479.953,361.738 470.791,360.381Z" style="fill:white;stroke:rgb(92,77,77);stroke-width:3.75px;"/>
        <path id="path14687" d="M396.483,273.857C421.931,298.457 447.379,323.057 472.827,347.657C411.158,340.022 378.245,377.431 343.551,389.646C323.531,357.921 302.24,324.159 282.22,292.434C307.329,280.388 323.906,260.543 360.346,257.57C374.471,256.418 385.455,265.883 396.483,273.857Z" style="fill:white;stroke:rgb(92,77,77);stroke-width:2.5px;"/>
        <path id="path950" d="M476.497,348.917C495.451,316.886 534.559,321.565 601.379,316.526C566.11,292.534 530.84,268.541 495.571,244.548C449.385,253.545 418.314,234.471 393.362,270.1L476.497,348.917Z" style="fill:white;stroke:rgb(92,77,77);stroke-width:2.5px;"/>
    </g>
</svg>
